<svg width="77" height="12" viewBox="0 0 77 12" fill="none" xmlns="http://www.w3.org/2000/svg">
<path d="M7.04178 0.862428L8.1015 2.98186C8.2443 3.27497 8.6276 3.55305 8.95078 3.61318L10.8673 3.92884C12.0923 4.13176 12.3779 5.01862 11.4986 5.90547L10.003 7.4011C9.75496 7.64912 9.61216 8.13764 9.69483 8.49088L10.1232 10.3397C10.4614 11.7978 9.6798 12.369 8.39461 11.6024L6.59836 10.5352C6.27518 10.3397 5.73405 10.3397 5.41087 10.5352L3.61462 11.6024C2.32944 12.3615 1.54782 11.7978 1.88603 10.3397L2.31442 8.49088C2.3971 8.14516 2.2543 7.65663 2.00628 7.4011L0.510658 5.90547C-0.368681 5.02613 -0.0830836 4.13928 1.14198 3.92884L3.05846 3.61318C3.38163 3.56057 3.76493 3.27497 3.90773 2.98186L4.96745 0.862428C5.53113 -0.287476 6.46307 -0.287476 7.04178 0.862428Z" fill="#D2B000"/>
<path d="M23.0418 0.862428L24.1015 2.98186C24.2443 3.27497 24.6276 3.55305 24.9508 3.61318L26.8673 3.92884C28.0923 4.13176 28.3779 5.01862 27.4986 5.90547L26.003 7.4011C25.755 7.64912 25.6122 8.13764 25.6948 8.49088L26.1232 10.3397C26.4614 11.7978 25.6798 12.369 24.3946 11.6024L22.5984 10.5352C22.2752 10.3397 21.7341 10.3397 21.4109 10.5352L19.6146 11.6024C18.3294 12.3615 17.5478 11.7978 17.886 10.3397L18.3144 8.49088C18.3971 8.14516 18.2543 7.65663 18.0063 7.4011L16.5107 5.90547C15.6313 5.02613 15.9169 4.13928 17.142 3.92884L19.0585 3.61318C19.3816 3.56057 19.7649 3.27497 19.9077 2.98186L20.9674 0.862428C21.5311 -0.287476 22.4631 -0.287476 23.0418 0.862428Z" fill="#D2B000"/>
<path d="M39.0418 0.862428L40.1015 2.98186C40.2443 3.27497 40.6276 3.55305 40.9508 3.61318L42.8673 3.92884C44.0923 4.13176 44.3779 5.01862 43.4986 5.90547L42.003 7.4011C41.755 7.64912 41.6122 8.13764 41.6948 8.49088L42.1232 10.3397C42.4614 11.7978 41.6798 12.369 40.3946 11.6024L38.5984 10.5352C38.2752 10.3397 37.7341 10.3397 37.4109 10.5352L35.6146 11.6024C34.3294 12.3615 33.5478 11.7978 33.886 10.3397L34.3144 8.49088C34.3971 8.14516 34.2543 7.65663 34.0063 7.4011L32.5107 5.90547C31.6313 5.02613 31.9169 4.13928 33.142 3.92884L35.0585 3.61318C35.3816 3.56057 35.7649 3.27497 35.9077 2.98186L36.9674 0.862428C37.5311 -0.287476 38.4631 -0.287476 39.0418 0.862428Z" fill="#D2B000"/>
<path d="M55.0418 0.862428L56.1015 2.98186C56.2443 3.27497 56.6276 3.55305 56.9508 3.61318L58.8673 3.92884C60.0923 4.13176 60.3779 5.01862 59.4986 5.90547L58.003 7.4011C57.755 7.64912 57.6122 8.13764 57.6948 8.49088L58.1232 10.3397C58.4614 11.7978 57.6798 12.369 56.3946 11.6024L54.5984 10.5352C54.2752 10.3397 53.7341 10.3397 53.4109 10.5352L51.6146 11.6024C50.3294 12.3615 49.5478 11.7978 49.886 10.3397L50.3144 8.49088C50.3971 8.14516 50.2543 7.65663 50.0063 7.4011L48.5107 5.90547C47.6313 5.02613 47.9169 4.13928 49.142 3.92884L51.0585 3.61318C51.3816 3.56057 51.7649 3.27497 51.9077 2.98186L52.9674 0.862428C53.5311 -0.287476 54.4631 -0.287476 55.0418 0.862428Z" fill="#D2B000"/>
<path d="M72.905 3.85902L72.9051 3.85896C72.6976 3.82036 72.4865 3.71622 72.3101 3.58606C72.1345 3.45653 71.9715 3.28514 71.8773 3.09256L70.8185 0.974815C70.8184 0.974755 70.8184 0.974695 70.8184 0.974635C70.5467 0.434803 70.2354 0.25 69.999 0.25C69.7637 0.25 69.4562 0.433435 69.1919 0.972468L69.1911 0.974235L69.1911 0.974232L68.1319 3.0926C68.0382 3.28426 67.8759 3.45742 67.7 3.58829C67.5237 3.71941 67.3105 3.82537 67.0989 3.85988L67.0991 3.85986L72.905 3.85902ZM72.905 3.85902L72.9101 3.85986M72.905 3.85902L72.9101 3.85986M72.9101 3.85986L74.8264 4.17548C74.8265 4.17549 74.8265 4.17549 74.8266 4.1755C75.3958 4.26983 75.6606 4.50759 75.734 4.73692C75.8076 4.96672 75.7304 5.31647 75.3215 5.72907C75.3213 5.72919 75.3212 5.72932 75.3211 5.72945L73.8262 7.22432C73.6647 7.38587 73.5492 7.61129 73.4845 7.83785C73.4197 8.06464 73.398 8.31954 73.4514 8.54781C73.4514 8.54783 73.4514 8.54784 73.4514 8.54785L73.8797 10.3962L73.8797 10.3962M72.9101 3.85986L73.8797 10.3962M73.8797 10.3962C74.0437 11.1031 73.905 11.4684 73.7202 11.6034C73.5355 11.7384 73.1457 11.7593 72.5227 11.3877L72.5223 11.3875M73.8797 10.3962L72.5223 11.3875M72.5223 11.3875L70.7277 10.3212C70.7274 10.321 70.7271 10.3209 70.7268 10.3207C70.5166 10.1939 70.253 10.1386 70.0046 10.1386C69.7562 10.1386 69.4926 10.1939 69.2824 10.3207C69.2821 10.3209 69.2818 10.321 69.2815 10.3212L67.4875 11.3871C67.4874 11.3872 67.4874 11.3872 67.4873 11.3872C66.8641 11.7553 66.4738 11.735 66.2886 11.6003C66.1043 11.4663 65.9656 11.1033 66.1296 10.3962L66.1296 10.3962M72.5223 11.3875L66.1296 10.3962M66.1296 10.3962L66.5576 8.54902C66.5576 8.54872 66.5577 8.54842 66.5578 8.54812C66.6115 8.3226 66.5893 8.06928 66.5247 7.84349C66.46 7.61706 66.3451 7.39128 66.1857 7.22698L66.1857 7.22696M66.1296 10.3962L66.1857 7.22696M66.1857 7.22696L66.1831 7.22432M66.1857 7.22696L66.1831 7.22432M66.1831 7.22432L64.6874 5.7287M66.1831 7.22432L64.6874 5.7287M64.6874 5.7287C64.2788 5.32002 64.2017 4.97219 64.2753 4.74256M64.6874 5.7287L64.2753 4.74256M64.2753 4.74256C64.3489 4.51256 64.6144 4.27332 65.1835 4.17537M64.2753 4.74256L65.1835 4.17537M65.1835 4.17537C65.1838 4.17533 65.184 4.17528 65.1843 4.17523M65.1835 4.17537L65.1843 4.17523M65.1843 4.17523L67.0986 3.85993L65.1843 4.17523Z" fill="white" stroke="black" stroke-width="0.5"/>
</svg>
