<svg width="20" height="20" viewBox="0 0 20 20" fill="none" xmlns="http://www.w3.org/2000/svg">
<path d="M5.41 17.74C6.76 18.55 8.38 19 10 19C14.95 19 19 14.95 19 10C19 5.05 14.95 1 10 1C5.05 1 1 5.05 1 10C1 11.62 1.45 13.15 2.17 14.5L1.3964 17.4754C1.22115 18.1494 1.84503 18.7585 2.51469 18.5672L5.41 17.74Z" stroke="white" stroke-width="1.5" stroke-miterlimit="10" strokeLinecap="round" strokeLinejoin="round"/>
<path d="M14.05 12.5637C14.05 12.7095 14.0175 12.8593 13.9485 13.0051C13.8796 13.1509 13.7904 13.2886 13.6728 13.4182C13.474 13.6369 13.255 13.7949 13.0076 13.8961C12.7642 13.9974 12.5005 14.05 12.2166 14.05C11.8029 14.05 11.3608 13.9528 10.8943 13.7544C10.4279 13.5559 9.96143 13.2886 9.49901 12.9525C9.03254 12.6123 8.59046 12.2356 8.16863 11.8185C7.75085 11.3973 7.37363 10.9558 7.03698 10.4941C6.70439 10.0324 6.43668 9.5707 6.24199 9.11305C6.0473 8.65135 5.94995 8.2099 5.94995 7.7887C5.94995 7.5133 5.99862 7.25006 6.09597 7.00706C6.19332 6.76001 6.34745 6.5332 6.56242 6.3307C6.82201 6.07555 7.10594 5.95 7.40609 5.95C7.51966 5.95 7.63323 5.9743 7.73462 6.0229C7.84009 6.0715 7.93338 6.1444 8.00639 6.2497L8.9474 7.57405C9.02039 7.6753 9.07313 7.76845 9.10967 7.85755C9.14612 7.9426 9.16646 8.02765 9.16646 8.1046C9.16646 8.2018 9.13802 8.299 9.08123 8.39215C9.02849 8.4853 8.95145 8.5825 8.85407 8.6797L8.54582 8.99966C8.50127 9.04421 8.48093 9.09685 8.48093 9.16165C8.48093 9.19405 8.48498 9.2224 8.49308 9.2548C8.50532 9.2872 8.51747 9.3115 8.52557 9.3358C8.59856 9.46945 8.72429 9.6436 8.90276 9.8542C9.08528 10.0648 9.27995 10.2795 9.49091 10.4941C9.70997 10.7088 9.92084 10.9072 10.1359 11.0895C10.3467 11.2677 10.5211 11.3892 10.659 11.4621C10.6794 11.4702 10.7037 11.4823 10.7321 11.4945C10.7645 11.5066 10.797 11.5107 10.8334 11.5107C10.9025 11.5107 10.9551 11.4864 10.9998 11.4418L11.308 11.1381C11.4094 11.0368 11.5068 10.9599 11.6001 10.9113C11.6934 10.8546 11.7866 10.8262 11.8881 10.8262C11.9651 10.8262 12.0463 10.8424 12.1355 10.8789C12.2248 10.9153 12.318 10.968 12.4194 11.0368L13.762 11.9886C13.8674 12.0615 13.9404 12.1465 13.9851 12.2478C14.0257 12.349 14.05 12.4503 14.05 12.5637Z" stroke="white" stroke-width="1.5" stroke-miterlimit="10"/>
</svg>
