<svg width="17" height="17" viewBox="0 0 17 17" fill="none" xmlns="http://www.w3.org/2000/svg">
<path d="M13.2772 7.43893C12.9117 7.43893 12.6227 7.14142 12.6227 6.78439C12.6227 6.46988 12.3081 5.81538 11.7811 5.24587C11.2626 4.69336 10.6931 4.37036 10.2171 4.37036C9.85163 4.37036 9.56262 4.07286 9.56262 3.71585C9.56262 3.35885 9.86013 3.06135 10.2171 3.06135C11.0671 3.06135 11.9596 3.52035 12.7417 4.34486C13.4727 5.11837 13.9402 6.07888 13.9402 6.77588C13.9402 7.14142 13.6427 7.43893 13.2772 7.43893Z" fill="white"/>
<path d="M16.3455 7.43757C15.98 7.43757 15.691 7.14006 15.691 6.78306C15.691 3.76553 13.2345 1.31751 10.2254 1.31751C9.85993 1.31751 9.57092 1.02 9.57092 0.662999C9.57092 0.305995 9.85993 -7.62939e-06 10.2169 -7.62939e-06C13.957 -7.62939e-06 17 3.04302 17 6.78306C17 7.14006 16.7025 7.43757 16.3455 7.43757Z" fill="white"/>
<path d="M7.69258 11.0076L6.12006 12.5801C5.78856 12.9116 5.26155 12.9116 4.92155 12.5886C4.82805 12.4951 4.73455 12.4101 4.64105 12.3166C3.76554 11.4326 2.97503 10.5061 2.26952 9.5371C1.57252 8.56809 1.01151 7.59908 0.603506 6.63857C0.204002 5.66956 0 4.74305 0 3.85904C0 3.28103 0.102001 2.72853 0.306003 2.21852C0.510005 1.70002 0.833008 1.22401 1.28351 0.799008C1.82752 0.263503 2.42252 0 3.05153 0C3.28953 0 3.52754 0.0510006 3.74004 0.153002C3.96104 0.255003 4.15654 0.408004 4.30954 0.629006L6.28156 3.40853C6.43456 3.62104 6.54507 3.81654 6.62157 4.00354C6.69807 4.18204 6.74057 4.36054 6.74057 4.52205C6.74057 4.72605 6.68107 4.93005 6.56207 5.12555C6.45156 5.32105 6.29006 5.52506 6.08606 5.72906L5.44005 6.40056C5.34655 6.49407 5.30405 6.60457 5.30405 6.74057C5.30405 6.80857 5.31255 6.86807 5.32955 6.93607C5.35505 7.00407 5.38055 7.05507 5.39755 7.10607C5.55056 7.38657 5.81406 7.75208 6.18806 8.19408C6.57057 8.63609 6.97857 9.08659 7.42057 9.5371C7.50557 9.6221 7.59908 9.7071 7.68408 9.7921C8.02408 10.1236 8.03258 10.6676 7.69258 11.0076Z" fill="white"/>
<path d="M16.9743 13.8799C16.9743 14.1179 16.9318 14.3644 16.8468 14.6024C16.8213 14.6704 16.7958 14.7384 16.7618 14.8064C16.6173 15.1124 16.4303 15.4014 16.1838 15.6734C15.7673 16.1324 15.3083 16.4639 14.7898 16.6764C14.7813 16.6764 14.7728 16.6849 14.7643 16.6849C14.2628 16.8889 13.7188 16.9994 13.1323 16.9994C12.2653 16.9994 11.3388 16.7954 10.3612 16.3789C9.38374 15.9624 8.40623 15.4014 7.43722 14.6959C7.10571 14.4494 6.77422 14.2029 6.45972 13.9394L9.23924 11.1598C9.47724 11.3383 9.68974 11.4744 9.86824 11.5679C9.91074 11.5849 9.96174 11.6104 10.0212 11.6359C10.0892 11.6614 10.1572 11.6699 10.2337 11.6699C10.3782 11.6699 10.4887 11.6189 10.5822 11.5254L11.2283 10.8878C11.4408 10.6753 11.6448 10.5138 11.8403 10.4118C12.0358 10.2928 12.2313 10.2333 12.4438 10.2333C12.6053 10.2333 12.7753 10.2673 12.9623 10.3438C13.1493 10.4203 13.3448 10.5308 13.5573 10.6753L16.3708 12.6729C16.5918 12.8259 16.7448 13.0044 16.8383 13.2169C16.9233 13.4294 16.9743 13.6419 16.9743 13.8799Z" fill="white"/>
</svg>
