<svg width="34" height="34" viewBox="0 0 34 34" fill="none" xmlns="http://www.w3.org/2000/svg">
<path d="M22.917 17.5376V24.4009C22.917 25.008 22.8495 25.5813 22.6977 26.1041C22.0738 28.583 20.0165 30.1344 17.1835 30.1344H12.5967L7.50408 33.5239C6.74524 34.0466 5.73346 33.4901 5.73346 32.5795V30.1344C4.01342 30.1344 2.58006 29.561 1.58513 28.5661C0.573346 27.5543 0 26.121 0 24.4009V17.5376C0 14.3336 1.98985 12.1246 5.05893 11.8379C5.27815 11.821 5.49737 11.8042 5.73346 11.8042H17.1835C20.6236 11.8042 22.917 14.0976 22.917 17.5376Z" fill="white"/>
<path d="M26.5593 22.9338C28.7009 22.9338 30.5053 22.2256 31.7531 20.9608C33.0179 19.713 33.7261 17.9086 33.7261 15.767V7.16682C33.7261 3.20399 30.5221 0 26.5593 0H12.2257C8.26283 0 5.05884 3.20399 5.05884 7.16682V8.43155C5.05884 8.90372 5.42983 9.27471 5.90199 9.27471H17.1834C21.7533 9.27471 25.4463 12.9677 25.4463 17.5376V22.0907C25.4463 22.5628 25.8173 22.9338 26.2895 22.9338H26.5593Z" fill="white"/>
</svg>
