<svg width="22" height="22" viewBox="0 0 22 22" fill="none" xmlns="http://www.w3.org/2000/svg">
<path d="M6.24 0C2.7984 0 0 2.7984 0 6.24V14.88C0 18.3216 2.7984 21.12 6.24 21.12H14.88C18.3216 21.12 21.12 18.3216 21.12 14.88V6.24C21.12 2.7984 18.3216 0 14.88 0H6.24ZM16.32 3.84C16.848 3.84 17.28 4.272 17.28 4.8C17.28 5.328 16.848 5.76 16.32 5.76C15.792 5.76 15.36 5.328 15.36 4.8C15.36 4.272 15.792 3.84 16.32 3.84ZM10.56 5.28C13.4736 5.28 15.84 7.6464 15.84 10.56C15.84 13.4736 13.4736 15.84 10.56 15.84C7.6464 15.84 5.28 13.4736 5.28 10.56C5.28 7.6464 7.6464 5.28 10.56 5.28ZM10.56 6.24C8.1792 6.24 6.24 8.1792 6.24 10.56C6.24 12.9408 8.1792 14.88 10.56 14.88C12.9408 14.88 14.88 12.9408 14.88 10.56C14.88 8.1792 12.9408 6.24 10.56 6.24Z" fill="#242627"/>
</svg>
